<?xml version="1.0" encoding="UTF-8"?>
<svg width="512" height="512" viewBox="0 0 512 512" fill="none" xmlns="http://www.w3.org/2000/svg">
  <!-- Background Circle -->
  <circle cx="256" cy="256" r="240" fill="url(#gradient)" />
  
  <!-- Globe Lines -->
  <path d="M256 16C384.5 16 488 119.5 488 248C488 376.5 384.5 480 256 480C127.5 480 24 376.5 24 248C24 119.5 127.5 16 256 16Z" stroke="white" stroke-width="24" stroke-opacity="0.2"/>
  <path d="M256 16C384.5 16 488 119.5 488 248C488 376.5 384.5 480 256 480C127.5 480 24 376.5 24 248C24 119.5 127.5 16 256 16Z" stroke="white" stroke-width="24" stroke-opacity="0.2" transform="rotate(45 256 256)"/>
  <path d="M256 16C384.5 16 488 119.5 488 248C488 376.5 384.5 480 256 480C127.5 480 24 376.5 24 248C24 119.5 127.5 16 256 16Z" stroke="white" stroke-width="24" stroke-opacity="0.2" transform="rotate(-45 256 256)"/>
  
  <!-- Compass Rose -->
  <path d="M256 96L288 256L256 416L224 256L256 96Z" fill="white" fill-opacity="0.9"/>
  <path d="M96 256L256 288L416 256L256 224L96 256Z" fill="white" fill-opacity="0.9"/>
  
  <!-- Center Dot -->
  <circle cx="256" cy="256" r="32" fill="white"/>
  
  <!-- Gradient Definition -->
  <defs>
    <linearGradient id="gradient" x1="0" y1="0" x2="512" y2="512" gradientUnits="userSpaceOnUse">
      <stop offset="0%" stop-color="#3B82F6"/>
      <stop offset="100%" stop-color="#8B5CF6"/>
    </linearGradient>
  </defs>
</svg> 